<svg width="256" height="256" viewBox="0 0 256 256" fill="none" xmlns="http://www.w3.org/2000/svg">
  <rect width="256" height="256" rx="56" fill="url(#bg)"/>
  <rect x="7" y="7" width="242" height="242" rx="49" stroke="url(#ring)" stroke-width="2"/>

  <path d="M40 107L128 66L216 107L128 148L40 107Z" fill="#FFF5E9"/>
  <path d="M90 141V163C90 163 105 177 128 177C151 177 166 163 166 163V141L128 158L90 141Z" fill="#F7DEC3"/>
  <path d="M202 111V155" stroke="#F7DEC3" stroke-width="8" stroke-linecap="round"/>
  <circle cx="202" cy="166" r="10" fill="#F7DEC3"/>
  <path d="M90 141V163C90 163 105 177 128 177C151 177 166 163 166 163V141" stroke="#F7DEC3" stroke-width="4" stroke-linejoin="round"/>

  <defs>
    <linearGradient id="bg" x1="32" y1="22" x2="224" y2="238" gradientUnits="userSpaceOnUse">
      <stop stop-color="#9B5B39"/>
      <stop offset="1" stop-color="#6A381D"/>
    </linearGradient>
    <linearGradient id="ring" x1="30" y1="21" x2="216" y2="235" gradientUnits="userSpaceOnUse">
      <stop stop-color="#F9DFC6" stop-opacity="0.64"/>
      <stop offset="1" stop-color="#F9DFC6" stop-opacity="0.08"/>
    </linearGradient>
  </defs>
</svg>
